<?xml version="1.0" encoding="utf-8"?>
<!-- Generator: Adobe Illustrator 28.0.0, SVG Export Plug-In . SVG Version: 6.00 Build 0)  -->
<svg version="1.1" id="Layer_1" xmlns="http://www.w3.org/2000/svg" xmlns:xlink="http://www.w3.org/1999/xlink" x="0px" y="0px"
	 viewBox="0 0 666 356" style="enable-background:new 0 0 666 356;" xml:space="preserve">
<style type="text/css">
	.st0{fill:#FFAC1E;}
</style>
<g>
	<path class="st0" d="M577.5,153.6c9.8-11.3,15.8-25.8,16.1-41.7c0.7-37.1-29.4-67.6-66.4-67.6H356v267.4h197.3
		c44.3,0,81.3-35.2,82-79.5C635.8,195.1,611.2,163.6,577.5,153.6 M382.6,71h144.6c34.6,0,59,44.5,18.8,79.3H382.6V71z M553.5,285
		H382.6V177h172c28.7,0,52.3,22.5,53.9,50.8C610.3,259,584.7,285,553.5,285"/>
	<g>
		<polygon class="st0" points="231.5,44.3 210.4,70.9 210.3,71 201,82.6 19,311.7 52.9,311.7 244.2,71 244.2,71 244.3,70.9 
			338.9,70.9 338.9,44.3 		"/>
		<polygon class="st0" points="254.1,82.6 72.1,311.7 106,311.7 266.9,109.2 312.4,109.2 312.4,283.8 239.4,224.7 222.7,245.3 
			304.6,311.7 338.9,311.7 338.9,82.6 		"/>
	</g>
</g>
</svg>
