<svg version="1.0" xmlns="http://www.w3.org/2000/svg"
 width="100%" height="100%" viewBox="0 0 40 40">
<g transform="translate(0,0) scale(1,1)"
fill="#000000" stroke="none">
<path d="M317 405 l-266 -335 39 0 40 0 242 305 243 305 118 0 117 0 0 30 0
30 -133 0 -133 0 -267 -335z"/>
<path d="M900 404 l0 -335 284 3 284 3 44 30 c23 17 53 45 65 63 60 90 25 225
-74 280 l-42 23 21 35 c16 27 19 46 16 85 -6 56 -28 93 -78 127 -32 21 -40 22
-276 22 l-244 0 0 -336z m506 242 c46 -46 44 -106 -6 -156 -19 -19 -32 -20
-225 -20 l-205 0 0 105 0 105 201 0 201 0 34 -34z m71 -256 c91 -55 91 -166
-1 -234 -26 -20 -43 -21 -267 -24 l-239 -3 0 140 0 141 238 0 c217 0 240 -2
269 -20z"/>
<path d="M430 378 c-274 -345 -249 -308 -203 -308 38 0 39 2 241 255 l202 255
60 0 60 0 0 -221 c0 -176 -3 -219 -12 -212 -7 5 -48 38 -91 73 l-79 63 -21
-22 c-13 -13 -18 -24 -12 -30 6 -5 52 -43 104 -85 81 -65 99 -76 133 -76 l38
0 0 290 0 290 -102 0 -103 -1 -215 -271z"/>
</g>
</svg>
